<svg xmlns="http://www.w3.org/2000/svg" viewBox="0 0 159.2 52.9"><defs><style>.cls-1{fill:#00abe6;}.cls-2{fill:#007bc1;}.cls-3{fill:#f6cd00;}.cls-4{fill:#ffa134;}.cls-5{fill:#5b168b;}.cls-6{fill:#fff;}.cls-7{fill:#da0039;}</style></defs><title>LOGHORCOLCS3</title><g id="Camada_2" data-name="Camada 2"><g id="Camada_3" data-name="Camada 3"><polygon class="cls-1" points="36.1 10.49 18.08 20.89 27.8 26.6 36.1 21.49 36.1 10.49"/><polygon class="cls-2" points="18.08 32.23 26.64 37.14 36.35 31.63 18.08 20.89 18.08 32.23"/><polygon class="cls-3" points="9.14 5.32 18.08 0 36.1 10.49 26.44 16.07 9.14 5.32"/><polygon class="cls-4" points="9.14 5.32 0 10.49 0 22.04 18.28 11 9.14 5.32"/><polygon class="cls-5" points="9.74 48.23 0 42.53 0 22.04 9.79 16.07 9.74 48.23"/><polygon class="cls-6" points="27.21 47.47 18.08 52.9 9.74 48.23 9.76 36.96 27.21 47.47"/><polygon class="cls-7" points="36.35 42.48 27.21 47.5 18.08 41.99 36.35 31.63 36.35 42.48"/><path class="cls-6" d="M43.69,10.54h8.74q3.52,0,5.12,1.72t1.59,5.62v1.42q0,4.61-3.3,5.51a4.06,4.06,0,0,1,2.85,2.44,13,13,0,0,1,.82,5.06q0,5.14-1.54,7.78t-5.55,2.64H43.69ZM51.3,22.65A1.13,1.13,0,0,0,52.42,22a4.09,4.09,0,0,0,.3-1.74V17.06q0-1.57-1.39-1.57H50v7.16Zm1.84,12v-4a4.53,4.53,0,0,0-.43-2.21,1.6,1.6,0,0,0-1.52-.75H50V37l.64,0Q53.13,37.08,53.13,34.68Z"/><path class="cls-6" d="M61.64,42.74V10.54h12.9v6.22H68.2V23h6.07V29.1H68.2v7.39H75v6.26Z"/><path class="cls-6" d="M76.23,42.74l3.11-32.21H90.25l3.07,32.21H87.21l-.45-5.21h-3.9l-.38,5.21ZM83.35,32.4h2.92L84.85,16h-.3Z"/><path class="cls-6" d="M98,42.74v-26H94.22V10.54h14.1v6.19H104.5v26Z"/><path class="cls-6" d="M110.12,42.74V10.54H123v6.22h-6.34V23h6.07V29.1h-6.07v7.39h6.75v6.26Z"/><path class="cls-6" d="M127.42,40.83a8.42,8.42,0,0,1-2.12-6.07V19.91q0-4.8,1.91-7.24t6-2.44A8.27,8.27,0,0,1,139,12.19a7.16,7.16,0,0,1,2.17,5.62v5.55h-6.41V18.6a3.81,3.81,0,0,0-.34-1.91,1.28,1.28,0,0,0-1.16-.52,1.22,1.22,0,0,0-1.18.6,3.85,3.85,0,0,0-.32,1.76V34.68a3.52,3.52,0,0,0,.38,1.86,1.25,1.25,0,0,0,1.12.58q1.5,0,1.5-2.44V28.87h6.49v6.07q0,8.1-8.14,8.1A7.45,7.45,0,0,1,127.42,40.83Z"/><path class="cls-6" d="M143.34,42.74V10.54h6.41V22h3V10.54h6.41V42.74h-6.41V28.12h-3V42.74Z"/><path class="cls-6" d="M100.16,47.51a.61.61,0,0,0-.1-.35.82.82,0,0,0-.3-.25,3.26,3.26,0,0,0-.63-.23,3,3,0,0,1-.63-.23.83.83,0,0,1-.31-.27.7.7,0,0,1-.1-.38.68.68,0,0,1,.3-.57,1.28,1.28,0,0,1,.78-.22,1.26,1.26,0,0,1,.56.12.91.91,0,0,1,.38.34.92.92,0,0,1,.14.49h-.12a.77.77,0,0,0-.27-.6,1,1,0,0,0-.69-.24,1.15,1.15,0,0,0-.69.19.58.58,0,0,0,0,.95,2.16,2.16,0,0,0,.76.31,2.32,2.32,0,0,1,.77.32.72.72,0,0,1,.31.61.71.71,0,0,1-.14.43.87.87,0,0,1-.39.29,1.51,1.51,0,0,1-.57.1,1.63,1.63,0,0,1-.63-.12.9.9,0,0,1-.42-.33.91.91,0,0,1-.14-.51h.12a.72.72,0,0,0,.3.62,1.27,1.27,0,0,0,.78.22,1.19,1.19,0,0,0,.7-.19A.59.59,0,0,0,100.16,47.51Z"/><path class="cls-6" d="M103.61,46.91a1.75,1.75,0,0,1-.15.74,1.15,1.15,0,0,1-.43.5,1.17,1.17,0,0,1-.64.18,1.11,1.11,0,0,1-.88-.39,1.54,1.54,0,0,1-.34-1v-.47a1.75,1.75,0,0,1,.15-.74,1.14,1.14,0,0,1,.43-.5,1.25,1.25,0,0,1,1.28,0,1.15,1.15,0,0,1,.43.5,1.74,1.74,0,0,1,.15.74Zm-.12-.49a1.41,1.41,0,0,0-.3-.94,1.08,1.08,0,0,0-1.6,0,1.44,1.44,0,0,0-.3,1v.47a1.64,1.64,0,0,0,.13.68,1,1,0,0,0,.38.46,1.06,1.06,0,0,0,.58.16,1,1,0,0,0,.8-.35,1.46,1.46,0,0,0,.3-1Z"/><path class="cls-6" d="M104.88,48.17h1.66v.12h-1.78V45.05h.12Z"/><path class="cls-6" d="M109.56,45.05v2.19a1.06,1.06,0,0,1-.3.8,1.28,1.28,0,0,1-1.61,0,1.06,1.06,0,0,1-.3-.79v-2.2h.12v2.19a1,1,0,0,0,.27.71,1.11,1.11,0,0,0,1.43,0,1,1,0,0,0,.27-.71V45.05Z"/><path class="cls-6" d="M113,45.17H111.8v3.12h-.12V45.17H110.5v-.12H113Z"/><path class="cls-6" d="M114.16,48.29H114V45.05h.12Z"/><path class="cls-6" d="M117.83,46.91a1.75,1.75,0,0,1-.15.74,1.15,1.15,0,0,1-.43.5,1.17,1.17,0,0,1-.64.18,1.11,1.11,0,0,1-.88-.39,1.54,1.54,0,0,1-.34-1v-.47a1.75,1.75,0,0,1,.15-.74,1.14,1.14,0,0,1,.43-.5,1.25,1.25,0,0,1,1.28,0,1.15,1.15,0,0,1,.43.5,1.74,1.74,0,0,1,.15.74Zm-.12-.49a1.41,1.41,0,0,0-.3-.94,1.08,1.08,0,0,0-1.6,0,1.44,1.44,0,0,0-.3,1v.47a1.64,1.64,0,0,0,.13.68,1,1,0,0,0,.38.46,1.06,1.06,0,0,0,.58.16,1,1,0,0,0,.8-.35,1.46,1.46,0,0,0,.3-1Z"/><path class="cls-6" d="M121.31,48.29h-.12l-2.09-3v3H119V45.05h.12l2.09,3v-3h.12Z"/><path class="cls-6" d="M124.54,47.51a.61.61,0,0,0-.1-.35.82.82,0,0,0-.3-.25,3.26,3.26,0,0,0-.63-.23,3,3,0,0,1-.63-.23.83.83,0,0,1-.31-.27.7.7,0,0,1-.1-.38.68.68,0,0,1,.3-.57,1.28,1.28,0,0,1,.78-.22,1.26,1.26,0,0,1,.56.12.91.91,0,0,1,.38.34.92.92,0,0,1,.14.49h-.12a.77.77,0,0,0-.27-.6,1,1,0,0,0-.69-.24,1.15,1.15,0,0,0-.69.19.58.58,0,0,0,0,.95,2.16,2.16,0,0,0,.76.31,2.32,2.32,0,0,1,.77.32.72.72,0,0,1,.31.61.71.71,0,0,1-.14.43.87.87,0,0,1-.39.29,1.51,1.51,0,0,1-.57.1,1.63,1.63,0,0,1-.63-.12.9.9,0,0,1-.42-.33.91.91,0,0,1-.14-.51h.12a.72.72,0,0,0,.3.62,1.27,1.27,0,0,0,.78.22,1.19,1.19,0,0,0,.7-.19A.59.59,0,0,0,124.54,47.51Z"/><path class="cls-6" d="M129.26,45.17h-1.18v3.12H128V45.17h-1.18v-.12h2.48Z"/><path class="cls-6" d="M132,46.68h-1.62v1.48h1.85v.12h-2V45.05h2v.12h-1.85v1.39H132Z"/><path class="cls-6" d="M135.43,47.3a1.13,1.13,0,0,1-.34.77,1.16,1.16,0,0,1-.81.27,1.09,1.09,0,0,1-.61-.17,1.15,1.15,0,0,1-.41-.5,1.77,1.77,0,0,1-.15-.73v-.5a1.8,1.8,0,0,1,.14-.74,1.14,1.14,0,0,1,.41-.5,1.09,1.09,0,0,1,.61-.18,1.17,1.17,0,0,1,.81.27,1.12,1.12,0,0,1,.35.76h-.12a1,1,0,0,0-.31-.68,1,1,0,0,0-.72-.23.93.93,0,0,0-.76.36,1.46,1.46,0,0,0-.29,1v.48a1.67,1.67,0,0,0,.13.68,1,1,0,0,0,.37.46,1,1,0,0,0,.55.16A1.06,1.06,0,0,0,135,48a1,1,0,0,0,.31-.69Z"/><path class="cls-6" d="M138.89,48.29h-.12v-1.6H136.7v1.6h-.12V45.05h.12v1.51h2.07V45.05h.12Z"/><path class="cls-6" d="M142.51,48.29h-.12l-2.09-3v3h-.12V45.05h.12l2.09,3v-3h.12Z"/><path class="cls-6" d="M146.1,46.91a1.75,1.75,0,0,1-.15.74,1.15,1.15,0,0,1-.43.5,1.17,1.17,0,0,1-.64.18,1.11,1.11,0,0,1-.88-.39,1.54,1.54,0,0,1-.34-1v-.47a1.75,1.75,0,0,1,.15-.74,1.14,1.14,0,0,1,.43-.5,1.25,1.25,0,0,1,1.28,0,1.15,1.15,0,0,1,.43.5,1.74,1.74,0,0,1,.15.74Zm-.12-.49a1.41,1.41,0,0,0-.3-.94,1.08,1.08,0,0,0-1.6,0,1.44,1.44,0,0,0-.3,1v.47a1.64,1.64,0,0,0,.13.68,1,1,0,0,0,.38.46,1.06,1.06,0,0,0,.58.16,1,1,0,0,0,.8-.35,1.46,1.46,0,0,0,.3-1Z"/><path class="cls-6" d="M147.36,48.17H149v.12h-1.78V45.05h.12Z"/><path class="cls-6" d="M152.14,46.91a1.75,1.75,0,0,1-.15.74,1.15,1.15,0,0,1-.43.5,1.17,1.17,0,0,1-.64.18,1.11,1.11,0,0,1-.88-.39,1.54,1.54,0,0,1-.34-1v-.47a1.75,1.75,0,0,1,.15-.74,1.14,1.14,0,0,1,.43-.5,1.25,1.25,0,0,1,1.28,0,1.15,1.15,0,0,1,.43.5,1.74,1.74,0,0,1,.15.74Zm-.12-.49a1.41,1.41,0,0,0-.3-.94,1.08,1.08,0,0,0-1.6,0,1.44,1.44,0,0,0-.3,1v.47a1.64,1.64,0,0,0,.13.68,1,1,0,0,0,.38.46,1.06,1.06,0,0,0,.58.16,1,1,0,0,0,.8-.35,1.46,1.46,0,0,0,.3-1Z"/><path class="cls-6" d="M155.57,47.94a.88.88,0,0,1-.43.28,2,2,0,0,1-.68.11,1.17,1.17,0,0,1-1.08-.67,1.64,1.64,0,0,1-.16-.72v-.56a1.61,1.61,0,0,1,.15-.71,1.14,1.14,0,0,1,.43-.49,1.16,1.16,0,0,1,.62-.17,1.21,1.21,0,0,1,.79.25,1,1,0,0,1,.35.67h-.12a.9.9,0,0,0-.32-.59,1.09,1.09,0,0,0-.7-.21,1,1,0,0,0-.79.35,1.36,1.36,0,0,0-.3.92v.52a1.56,1.56,0,0,0,.14.68,1.05,1.05,0,0,0,1,.62,1.83,1.83,0,0,0,.6-.1.8.8,0,0,0,.38-.23v-.94h-1v-.12h1.11Z"/><path class="cls-6" d="M157.73,47l1.13-1.9H159l-1.22,2v1.23h-.12V47.06l-1.22-2h.16Z"/></g></g></svg>