<svg height="512pt" viewBox="0 0 512 512" width="512pt" xmlns="http://www.w3.org/2000/svg"><path d="m324.265625 196.265625c-70.691406 0-128 57.308594-128 128 0 70.695313 57.308594 128 128 128 70.695313 0 128-57.304687 128-128-.078125-70.660156-57.339844-127.917969-128-128zm0 238.933594c-61.265625 0-110.933594-49.664063-110.933594-110.933594 0-61.265625 49.667969-110.933594 110.933594-110.933594 61.269531 0 110.933594 49.667969 110.933594 110.933594-.070313 61.238281-49.695313 110.863281-110.933594 110.933594zm0 0"/><path d="m256 298.667969c4.710938 0 8.535156 3.820312 8.535156 8.53125 0 4.714843 3.820313 8.535156 8.53125 8.535156 4.714844 0 8.535156-3.820313 8.535156-8.535156 0-14.136719-11.464843-25.597657-25.601562-25.597657-13.988281.351563-25.246094 11.609376-25.601562 25.597657 0 13.808593 12.597656 20.097656 21.789062 24.746093 7.226562 3.566407 12.347656 6.367188 12.347656 9.386719-.289062 4.589844-3.945312 8.246094-8.535156 8.535157-4.710938 0-8.535156-3.820313-8.535156-8.535157 0-4.710937-3.820313-8.53125-8.53125-8.53125-4.714844 0-8.535156 3.820313-8.535156 8.53125 0 14.140625 11.464843 25.601563 25.601562 25.601563 13.988281-.355469 25.246094-11.609375 25.601562-25.601563 0-13.804687-12.597656-20.09375-21.789062-24.746093-7.226562-3.566407-12.347656-6.363282-12.347656-9.386719.289062-4.585938 3.945312-8.246094 8.535156-8.53125zm0 0"/><path d="m332.800781 298.667969c4.710938 0 8.53125-3.820313 8.53125-8.535157 0-4.710937-3.820312-8.53125-8.53125-8.53125h-17.066406c-9.425781 0-17.066406 7.640626-17.066406 17.066407v51.199219c0 9.425781 7.640625 17.066406 17.066406 17.066406h17.066406c4.710938 0 8.53125-3.820313 8.53125-8.535156 0-4.710938-3.820312-8.53125-8.53125-8.53125h-17.066406v-17.066407h17.066406c4.710938 0 8.53125-3.820312 8.53125-8.535156 0-4.710937-3.820312-8.53125-8.53125-8.53125h-17.066406v-17.066406zm0 0"/><path d="m358.398438 311.464844v25.601562c0 16.496094 13.375 29.867188 29.867187 29.867188 16.496094 0 29.867187-13.371094 29.867187-29.867188v-25.601562c0-16.492188-13.371093-29.863282-29.867187-29.863282-16.492187 0-29.867187 13.371094-29.867187 29.863282zm42.667968 0v25.601562c0 7.070313-5.730468 12.800782-12.800781 12.800782-7.066406 0-12.800781-5.730469-12.800781-12.800782v-25.601562c0-7.066406 5.734375-12.796875 12.800781-12.796875 7.070313 0 12.800781 5.730469 12.800781 12.796875zm0 0"/><path d="m494.933594 298.667969h-10.546875c-.054688-.058594-.089844-.132813-.09375-.214844-4.042969-25.019531-13.90625-48.742187-28.800781-69.246094l7.550781-7.554687c3.203125-3.199219 5.003906-7.542969 5.003906-12.070313 0-4.527343-1.800781-8.867187-5.003906-12.070312l-12.066407-12.066407c-6.664062-6.660156-17.464843-6.660156-24.128906 0l-7.683594 7.433594c-20.535156-14.839844-44.273437-24.644531-69.296874-28.628906v-10.648438c0-9.425781-7.640626-17.066406-17.066407-17.066406h-17.066406c-9.425781 0-17.066406 7.640625-17.066406 17.066406l-.171875 10.640626c-25.019532 4.042968-48.742188 13.90625-69.257813 28.789062l-7.550781-7.550781c-6.664062-6.664063-17.46875-6.664063-24.132812 0l-12.066407 12.066406c-3.203125 3.199219-5 7.542969-5 12.070313 0 4.527343 1.796875 8.871093 5 12.070312l7.425781 7.679688c-14.855468 20.535156-24.671874 44.273437-28.664062 69.300781h-10.648438c-9.425781 0-17.066406 7.640625-17.066406 17.066406v17.066406c0 9.425781 7.640625 17.066407 17.066406 17.066407l10.640626.179687c4.039062 25.019531 13.90625 48.738281 28.800781 69.246094l-7.554688 7.554687c-3.203125 3.199219-5 7.542969-5 12.070313 0 4.527343 1.796875 8.867187 5 12.070312l12.066407 12.066407c6.664062 6.660156 17.46875 6.660156 24.132812 0l7.679688-7.433594c20.535156 14.851562 44.273437 24.667968 69.300781 28.664062v10.648438c0 9.425781 7.640625 17.066406 17.066406 17.066406h17.066406c9.425781 0 17.066407-7.640625 17.066407-17.066406l.171874-10.640625c25.019532-4.046875 48.742188-13.90625 69.253907-28.792969l7.554687 7.554688c6.664063 6.660156 17.464844 6.660156 24.128906 0l12.066407-12.066407c3.203125-3.203125 5.003906-7.542969 5.003906-12.070312 0-4.527344-1.800781-8.871094-5.003906-12.070313l-7.421875-7.683594c14.851562-20.53125 24.671875-44.269531 28.664062-69.296874h10.648438c9.425781 0 17.066406-7.640626 17.066406-17.066407v-17.066406c0-9.425781-7.640625-17.066406-17.066406-17.066406zm0 34.132812h-10.648438c-8.425781.019531-15.574218 6.179688-16.835937 14.507813-3.617188 22.324218-12.398438 43.496094-25.652344 61.820312-5.015625 6.785156-4.320313 16.210938 1.628906 22.1875l7.550781 7.5625-12.066406 12.109375-7.542968-7.546875c-5.972657-5.953125-15.398438-6.652344-22.183594-1.644531-18.328125 13.238281-39.496094 22.003906-61.816406 25.597656-8.371094 1.242188-14.570313 8.425781-14.566407 16.890625v10.648438h-17.066406v-10.648438c-.015625-8.425781-6.175781-15.582031-14.507813-16.847656-22.316406-3.59375-43.484374-12.363281-61.808593-25.597656-2.972657-2.167969-6.558594-3.335938-10.238281-3.335938-4.5-.007812-8.816407 1.78125-11.988282 4.972656l-7.554687 7.554688-12.0625-12.078125 7.542969-7.542969c5.953124-5.972656 6.648437-15.402344 1.636718-22.1875-13.273437-18.347656-22.066406-39.554687-25.667968-61.914062-1.261719-8.328125-8.414063-14.488282-16.835938-14.507813h-10.648438v-17.066406h10.648438c8.421875-.019531 15.574219-6.179687 16.835938-14.507813 3.613281-22.324218 12.398437-43.496093 25.652343-61.824218 5.011719-6.78125 4.320313-16.210938-1.632812-22.1875l-7.550781-7.558594 12.066406-12.066406 7.542968 7.542968c5.972657 5.957032 15.402344 6.65625 22.1875 1.648438 18.328126-13.238281 39.496094-22.007812 61.816407-25.601562 8.386719-1.242188 14.589843-8.453126 14.566406-16.929688v-10.648438h17.066406v10.648438c.011719 8.425781 6.175781 15.582031 14.507813 16.84375 22.316406 3.597656 43.480468 12.363281 61.804687 25.601562 6.785157 5.011719 16.210938 4.3125 22.1875-1.640624l7.550781-7.550782 12.066407 12.074219-7.542969 7.542969c-5.953125 5.976562-6.648438 15.402344-1.636719 22.1875 13.289063 18.347656 22.09375 39.554687 25.710938 61.917968 1.261719 8.328126 8.410156 14.488282 16.835937 14.507813h10.648438zm0 0"/><path d="m16.894531 136.535156 12.75.203125c1.46875 4.683594 3.394531 9.207031 5.761719 13.507813l-9.074219 9.078125c-6.585937 6.605469-6.585937 17.292969 0 23.894531l12.316407 12.304688c6.601562 6.585937 17.289062 6.585937 23.890624 0l9.140626-8.867188c4.359374 2.277344 8.933593 4.121094 13.652343 5.496094v12.800781c.007813 9.332031 7.566407 16.898437 16.898438 16.914063h17.40625c9.328125-.015626 16.882812-7.570313 16.898437-16.898438l.21875-12.746094c4.675782-1.476562 9.199219-3.40625 13.5-5.761718l9.070313 9.0625c6.605469 6.585937 17.289062 6.585937 23.894531 0l12.3125-12.304688c6.589844-6.601562 6.589844-17.289062 0-23.894531l-8.875-9.136719c2.28125-4.359375 4.121094-8.933594 5.496094-13.652344h12.800781c9.332031-.007812 16.898437-7.566406 16.914063-16.898437v-17.40625c-.015626-9.328125-7.570313-16.882813-16.898438-16.898438l-12.746094-.203125c-1.46875-4.683594-3.398437-9.210937-5.761718-13.515625l9.070312-9.074219c6.597656-6.597656 6.597656-17.292968 0-23.890624l-12.320312-12.324219c-6.605469-6.582031-17.289063-6.582031-23.894532 0l-9.128906 8.882812c-4.359375-2.273437-8.933594-4.117187-13.652344-5.492187v-12.820313c-.015625-9.324219-7.570312-16.878906-16.898437-16.894531h-17.40625c-9.328125.015625-16.882813 7.570312-16.898438 16.894531l-.21875 12.75c-4.679687 1.476563-9.199219 3.40625-13.5 5.761719l-9.082031-9.082031c-6.605469-6.578125-17.285156-6.578125-23.890625 0l-12.296875 12.316406c-6.597656 6.597656-6.597656 17.292969 0 23.890625l8.863281 9.148438c-2.277343 4.359374-4.117187 8.933593-5.492187 13.652343h-12.820313c-9.324219.015625-16.878906 7.570313-16.894531 16.898438v17.40625c.015625 9.328125 7.570312 16.882812 16.894531 16.898437zm12.800781-34.136718c7.472657-.050782 14.042969-4.957032 16.214844-12.105469 1.171875-3.691407 2.65625-7.273438 4.4375-10.710938 3.53125-6.589843 2.359375-14.710937-2.886718-20.035156l-9.0625-8.832031 12.078124-12.316406 9.070313 9.074218c5.328125 5.242188 13.445313 6.40625 20.035156 2.875 3.4375-1.78125 7.019531-3.269531 10.710938-4.445312 7.140625-2.167969 12.042969-8.726563 12.105469-16.1875l-.167969-12.648438 17.234375-.171875v12.800781c.050781 7.472657 4.953125 14.039063 12.101562 16.214844 3.691406 1.175782 7.273438 2.660156 10.710938 4.445313 6.589844 3.535156 14.714844 2.367187 20.042968-2.882813l8.832032-9.074218 12.3125 12.078124-9.078125 9.070313c-5.238281 5.328125-6.402344 13.449219-2.867188 20.035156 1.78125 3.4375 3.269531 7.019531 4.445313 10.710938 2.167968 7.140625 8.726562 12.042969 16.1875 12.105469l12.648437-.167969v17.234375h-12.648437c-7.472656.054687-14.042969 4.960937-16.210938 12.109375-1.175781 3.691406-2.664062 7.273437-4.445312 10.710937-3.527344 6.585938-2.359375 14.703125 2.882812 20.027344l9.085938 8.839844-12.074219 12.3125-9.070313-9.0625c-5.324218-5.242188-13.445312-6.414063-20.035156-2.882813-3.4375 1.78125-7.019531 3.269531-10.710937 4.445313-7.140625 2.167968-12.046875 8.726562-12.109375 16.1875l.171875 12.648437-17.238281.167969v-12.796875c-.046876-7.472656-4.953126-14.039063-12.097657-16.214844-3.691406-1.171875-7.273437-2.65625-10.710937-4.4375-2.515625-1.316406-5.316406-2.007812-8.15625-2.011719-4.457032-.019531-8.738282 1.746094-11.886719 4.894532l-8.832031 9.0625-12.316406-12.074219 9.074218-9.070313c5.242188-5.328124 6.40625-13.449218 2.875-20.035156-1.78125-3.4375-3.269531-7.019531-4.445312-10.710937-2.167969-7.140625-8.726563-12.046875-16.1875-12.109375l-12.648438.171875-.171875-17.238281zm0 0"/><path d="m110.933594 162.132812c28.277344 0 51.199218-22.921874 51.199218-51.199218s-22.921874-51.199219-51.199218-51.199219-51.199219 22.921875-51.199219 51.199219c.027344 28.265625 22.933594 51.171875 51.199219 51.199218zm0-85.332031c18.851562 0 34.132812 15.28125 34.132812 34.132813 0 18.851562-15.28125 34.132812-34.132812 34.132812-18.851563 0-34.132813-15.28125-34.132813-34.132812 0-18.851563 15.28125-34.132813 34.132813-34.132813zm0 0"/><path d="m119.464844 110.933594c0 4.710937-3.820313 8.53125-8.53125 8.53125-4.714844 0-8.535156-3.820313-8.535156-8.53125 0-4.714844 3.820312-8.535156 8.535156-8.535156 4.710937 0 8.53125 3.820312 8.53125 8.535156zm0 0"/><path d="m76.800781 460.800781c14.136719 0 25.597657-11.460937 25.597657-25.601562 0-14.136719-11.460938-25.597657-25.597657-25.597657-14.140625 0-25.601562 11.460938-25.601562 25.597657 0 14.140625 11.460937 25.601562 25.601562 25.601562zm0-34.132812c4.710938 0 8.53125 3.820312 8.53125 8.53125 0 4.714843-3.820312 8.535156-8.53125 8.535156-4.714843 0-8.535156-3.820313-8.535156-8.535156 0-4.710938 3.820313-8.53125 8.535156-8.53125zm0 0"/><path d="m8.535156 443.734375h9.214844c1.414062 9.855469 5.289062 19.199219 11.261719 27.167969l-6.527344 6.539062c-3.332031 3.332032-3.328125 8.738282.003906 12.070313 3.335938 3.332031 8.738281 3.328125 12.070313-.003907l6.53125-6.53125c7.96875 5.980469 17.316406 9.855469 27.175781 11.273438v9.214844c0 4.714844 3.820313 8.535156 8.535156 8.535156 4.710938 0 8.53125-3.820312 8.53125-8.535156v-9.214844c9.859375-1.414062 19.203125-5.289062 27.171875-11.261719l6.527344 6.527344c2.15625 2.15625 5.296875 3 8.242188 2.210937 2.945312-.789062 5.25-3.089843 6.039062-6.03125.789062-2.945312-.050781-6.089843-2.207031-8.246093l-6.527344-6.539063c5.980469-7.96875 9.855469-17.316406 11.273437-27.175781h9.214844c4.714844 0 8.535156-3.820313 8.535156-8.535156 0-4.710938-3.820312-8.53125-8.535156-8.53125h-9.214844c-1.417968-9.859375-5.289062-19.203125-11.265624-27.171875l6.527343-6.535156c3.332031-3.335938 3.332031-8.738282-.003906-12.070313-3.332031-3.332031-8.738281-3.332031-12.070313.003906l-6.527343 6.527344c-7.96875-5.980469-17.316407-9.855469-27.179688-11.273437v-9.214844c0-4.714844-3.820312-8.535156-8.53125-8.535156-4.714843 0-8.535156 3.820312-8.535156 8.535156v9.214844c-9.855469 1.417968-19.199219 5.289062-27.167969 11.265624l-6.527344-6.527343c-3.335937-3.335938-8.742187-3.335938-12.078124 0-3.332032 3.332031-3.332032 8.738281 0 12.074219l6.53125 6.535156c-5.980469 7.96875-9.855469 17.3125-11.273438 27.171875h-9.214844c-4.714844 0-8.535156 3.820312-8.535156 8.53125 0 4.714843 3.820312 8.535156 8.535156 8.535156zm68.265625-51.199219c23.5625 0 42.664063 19.101563 42.664063 42.664063 0 23.566406-19.101563 42.667969-42.664063 42.667969-23.566406 0-42.667969-19.101563-42.667969-42.667969.027344-23.550781 19.113282-42.636719 42.667969-42.664063zm0 0"/><path d="m435.199219 51.199219c-14.136719 0-25.597657 11.460937-25.597657 25.601562 0 14.136719 11.460938 25.597657 25.597657 25.597657 14.140625 0 25.601562-11.460938 25.601562-25.597657 0-6.789062-2.699219-13.300781-7.5-18.101562s-11.3125-7.5-18.101562-7.5zm0 34.132812c-4.710938 0-8.53125-3.820312-8.53125-8.53125 0-4.714843 3.820312-8.535156 8.53125-8.535156 4.714843 0 8.535156 3.820313 8.535156 8.535156 0 4.710938-3.820313 8.53125-8.535156 8.53125zm0 0"/><path d="m503.464844 68.265625h-9.214844c-1.414062-9.855469-5.289062-19.199219-11.261719-27.167969l6.527344-6.539062c3.332031-3.332032 3.328125-8.738282-.003906-12.070313-3.335938-3.332031-8.738281-3.328125-12.070313.003907l-6.53125 6.53125c-7.96875-5.980469-17.316406-9.855469-27.175781-11.273438v-9.214844c0-4.714844-3.820313-8.535156-8.535156-8.535156-4.710938 0-8.53125 3.820312-8.53125 8.535156v9.214844c-9.859375 1.414062-19.203125 5.289062-27.171875 11.261719l-6.527344-6.527344c-3.335938-3.332031-8.742188-3.332031-12.074219 0-3.335937 3.335937-3.335937 8.742187 0 12.074219l6.527344 6.539062c-5.976563 7.964844-9.855469 17.308594-11.273437 27.167969h-9.214844c-4.714844 0-8.535156 3.820313-8.535156 8.535156 0 4.710938 3.820312 8.53125 8.535156 8.53125h9.214844c1.417968 9.859375 5.289062 19.203125 11.265624 27.171875l-6.527343 6.535156c-3.332031 3.335938-3.332031 8.738282.003906 12.070313 3.332031 3.332031 8.738281 3.332031 12.070313-.003906l6.527343-6.527344c7.96875 5.980469 17.316407 9.855469 27.179688 11.273437v9.214844c0 4.714844 3.820312 8.535156 8.53125 8.535156 4.714843 0 8.535156-3.820312 8.535156-8.535156v-9.214844c9.855469-1.417968 19.199219-5.289062 27.167969-11.265624l6.527344 6.527343c3.332031 3.335938 8.738281 3.335938 12.070312.003907 3.335938-3.332032 3.339844-8.734376.007812-12.070313l-6.53125-6.535156c5.980469-7.96875 9.855469-17.316407 11.273438-27.179688h9.214844c4.714844 0 8.535156-3.820312 8.535156-8.53125 0-4.714843-3.820312-8.535156-8.535156-8.535156zm-68.265625 51.199219c-23.5625 0-42.664063-19.101563-42.664063-42.664063 0-23.566406 19.101563-42.667969 42.664063-42.667969 23.566406 0 42.667969 19.101563 42.667969 42.667969-.027344 23.550781-19.113282 42.636719-42.667969 42.664063zm0 0"/><path d="m273.066406 93.867188v-17.066407c0-4.714843-3.820312-8.535156-8.53125-8.535156-4.714844 0-8.535156 3.820313-8.535156 8.535156v17.066407c0 4.710937 3.820312 8.53125 8.535156 8.53125 4.710938 0 8.53125-3.820313 8.53125-8.53125zm0 0"/><path d="m296.167969 125.5 8.53125-8.535156c3.234375-3.347656 3.1875-8.667969-.101563-11.960938-3.292968-3.292968-8.617187-3.335937-11.964844-.105468l-8.53125 8.535156c-2.21875 2.140625-3.109374 5.316406-2.328124 8.296875.78125 2.984375 3.109374 5.316406 6.09375 6.097656 2.984374.78125 6.15625-.109375 8.300781-2.328125zm0 0"/><path d="m98.585938 248.363281-17.066407 8.53125c-2.730469 1.363281-4.523437 4.078125-4.707031 7.125-.183594 3.042969 1.269531 5.953125 3.8125 7.636719 2.546875 1.679688 5.792969 1.878906 8.523438.515625l17.066406-8.535156c4.21875-2.105469 5.929687-7.234375 3.824218-11.449219-2.109374-4.21875-7.234374-5.929688-11.453124-3.824219zm0 0"/><path d="m120.363281 269.253906-8.535156 17.066406c-2.105469 4.214844-.394531 9.34375 3.824219 11.449219 4.21875 2.109375 9.34375.394531 11.453125-3.820312l8.53125-17.066407c2.105469-4.21875.394531-9.347656-3.824219-11.453124-4.214844-2.105469-9.34375-.394532-11.449219 3.824218zm0 0"/></svg>